<?xml version="1.0" standalone="no"?>
<!DOCTYPE svg PUBLIC "-//W3C//DTD SVG 20010904//EN"
 "http://www.w3.org/TR/2001/REC-SVG-20010904/DTD/svg10.dtd">
<svg version="1.0" xmlns="http://www.w3.org/2000/svg"
 width="512.000000pt" height="512.000000pt" viewBox="0 0 512.000000 512.000000"
 preserveAspectRatio="xMidYMid meet">
<metadata>
Created by potrace 1.14, written by Peter Selinger 2001-2017
</metadata>
<g transform="translate(0.000000,512.000000) scale(0.100000,-0.100000)"
fill="#000000" stroke="none">
<path d="M2365 5114 c-27 -2 -111 -13 -185 -24 -710 -105 -1348 -511 -1752
-1115 -202 -302 -340 -661 -400 -1040 -32 -201 -32 -549 0 -750 115 -729 511
-1352 1117 -1757 302 -202 661 -340 1040 -400 201 -32 549 -32 750 0 284 45
512 117 764 243 501 248 902 649 1150 1150 126 252 198 480 243 764 32 201 32
549 0 750 -115 729 -511 1352 -1117 1757 -299 200 -662 340 -1030 398 -127 20
-459 34 -580 24z m-695 -1313 c14 -10 36 -33 49 -52 22 -32 23 -40 17 -127 -7
-110 -27 -152 -87 -182 -49 -25 -90 -25 -140 0 -66 34 -81 69 -76 175 4 101
23 154 65 181 54 35 125 37 172 5z m1193 -95 c40 -16 83 -65 91 -104 4 -15 3
-64 -3 -109 -13 -122 -61 -175 -157 -175 -61 0 -104 28 -132 84 -22 43 -23 52
-14 133 11 95 25 124 82 163 37 25 86 28 133 8z m-1253 -1234 c122 -70 237
-117 372 -149 57 -14 114 -18 258 -18 200 0 266 11 424 72 56 21 76 24 104 17
67 -17 96 -97 55 -152 -41 -56 -271 -125 -473 -142 -208 -19 -422 13 -626 92
-105 40 -256 124 -280 155 -24 31 -17 97 12 126 43 43 78 43 154 -1z"/>
</g>
</svg>
